<?xml version="1.0" encoding="UTF-8"?>
<!DOCTYPE svg PUBLIC "-//W3C//DTD SVG 1.1//EN" "http://www.w3.org/Graphics/SVG/1.1/DTD/svg11.dtd">
<svg xmlns="http://www.w3.org/2000/svg" xmlns:xlink="http://www.w3.org/1999/xlink" version="1.1" width="549px" height="549px" viewBox="-0.5 -0.5 549 549" style="background-color: rgb(255, 255, 255);"><defs/><g><rect x="0" y="68" width="480" height="480" fill="#269998" stroke="none" pointer-events="all"/><rect x="68" y="0" width="480" height="480" fill="#8d1211" stroke="none" pointer-events="all"/><rect x="128" y="258" width="39" height="136" fill="#ffffff" stroke="none" pointer-events="all"/><rect x="128" y="207" width="37.9" height="61" fill="#ffffff" stroke="none" pointer-events="all"/><rect x="185.03" y="202.99" width="16.95" height="168.19" fill="#ffffff" stroke="none" transform="rotate(335.2,193.5,287.09)" pointer-events="all"/><rect x="186.96" y="230.01" width="16.95" height="168" fill="#ffffff" stroke="none" transform="rotate(335.5,195.43,314.01)" pointer-events="all"/><rect x="222.5" y="338" width="37.5" height="56" fill="#ffffff" stroke="none" pointer-events="all"/><rect x="222" y="206" width="38" height="142" fill="#ffffff" stroke="none" pointer-events="all"/><path d="M 375.52 324 L 359 206 L 418 324 Z" fill="#ffffff" stroke="none" transform="translate(388.5,0)scale(-1,1)translate(-388.5,0)rotate(180,388.5,265)" pointer-events="all"/><rect x="308.63" y="290.21" width="25" height="96" fill="#ffffff" stroke="none" transform="rotate(25.4,321.13,338.21)" pointer-events="all"/><rect x="318.19" y="297.04" width="25" height="95" fill="#ffffff" stroke="none" transform="rotate(22,330.69,344.54)" pointer-events="all"/><rect x="357" y="207" width="25" height="96" fill="#ffffff" stroke="none" transform="rotate(21.5,369.5,255)" pointer-events="all"/><rect x="318" y="208" width="25" height="96" fill="#ffffff" stroke="none" transform="translate(0,256)scale(1,-1)translate(0,-256)rotate(21,330.5,256)" pointer-events="all"/><rect x="357" y="296" width="25" height="96" fill="#ffffff" stroke="none" transform="translate(0,344)scale(1,-1)translate(0,-344)rotate(-338.5,369.5,344)" pointer-events="all"/><rect x="369" y="296" width="25" height="96" fill="#ffffff" stroke="none" transform="translate(0,344)scale(1,-1)translate(0,-344)rotate(-334.5,381.5,344)" pointer-events="all"/><rect x="306" y="207" width="25" height="96" fill="#ffffff" stroke="none" transform="translate(0,255)scale(1,-1)translate(0,-255)rotate(-334.5,318.5,255)" pointer-events="all"/><rect x="368" y="207" width="25" height="96" fill="#ffffff" stroke="none" transform="rotate(25.5,380.5,255)" pointer-events="all"/><path d="M 375.6 394 L 360 276 L 420 394 Z" fill="#ffffff" stroke="none" pointer-events="all"/><path d="M 295.6 394 L 280 276 L 340 394 Z" fill="#ffffff" stroke="none" transform="translate(0,335)scale(1,-1)translate(0,-335)rotate(180,310,335)" pointer-events="all"/><path d="M 297.2 324 L 281 206 L 341 324 Z" fill="#ffffff" stroke="none" transform="rotate(-180,311,265)" pointer-events="all"/></g></svg>